<!-- icon666.com - MILLIONS vector ICONS FREE --><svg viewBox="0 0 24 24" xmlns="http://www.w3.org/2000/svg" xmlns:xlink="http://www.w3.org/1999/xlink"><linearGradient id="linear-gradient" gradientUnits="userSpaceOnUse" x1="18.652" x2="6.055" y1="17.57" y2="10.298"><stop offset="0" stop-color="#6e44ff" stop-opacity="0"></stop><stop offset="1" stop-color="#c7c2ff"></stop></linearGradient><linearGradient id="linear-gradient-2" gradientTransform="matrix(-1 0 0 1 -474 0)" gradientUnits="userSpaceOnUse" x1="-480.053" x2="-492.652" y1="10.297" y2="17.571"><stop offset="0" stop-color="#6e44ff" stop-opacity="0"></stop><stop offset="1" stop-color="#9a81d4"></stop></linearGradient><g id="Flat"><circle cx="12" cy="12" fill="#ffc2e2" r="9"></circle><path d="m18 12v6.7a8.9761 8.9761 0 0 1 -12 0v-6.7a6.0048 6.0048 0 0 1 6-6 6.009 6.009 0 0 1 6 6z" fill="#b892ff"></path><path d="m18 12v6.7a8.9761 8.9761 0 0 1 -12 0v-6.7a6.0048 6.0048 0 0 1 6-6 6.009 6.009 0 0 1 6 6z" fill="url(#linear-gradient)"></path><path d="m6 12v6.7a8.9761 8.9761 0 0 0 12 0v-6.7a6.0048 6.0048 0 0 0 -6-6 6.009 6.009 0 0 0 -6 6z" fill="url(#linear-gradient-2)"></path><g fill="#1e1d1e"><circle cx="14" cy="11" r="1"></circle><circle cx="10" cy="11" r="1"></circle><path d="m14 16.25a.25.25 0 0 1 -.25-.25 1.75 1.75 0 0 0 -3.5 0 .25.25 0 0 1 -.5 0 2.25 2.25 0 0 1 4.5 0 .25.25 0 0 1 -.25.25z"></path></g></g></svg>