<svg width="24" height="24" xmlns="http://www.w3.org/2000/svg" fill="none">

 <g>
  <title>Layer 1</title>
  <path id="svg_1" stroke-linejoin="round" stroke-linecap="round" stroke-width="2" stroke="#ffffff" d="m8,6.00067l13,0.00072m-13,5.99931l13,0.0008m-13,5.9992l13,0.0008m-17.5,-12.0015l0.01,0m-0.01,6l0.01,0m-0.01,6l0.01,0m0.49,-12c0,0.27614 -0.22386,0.5 -0.5,0.5c-0.27614,0 -0.5,-0.22386 -0.5,-0.5c0,-0.27614 0.22386,-0.5 0.5,-0.5c0.27614,0 0.5,0.22386 0.5,0.5zm0,6c0,0.2761 -0.22386,0.5 -0.5,0.5c-0.27614,0 -0.5,-0.2239 -0.5,-0.5c0,-0.2761 0.22386,-0.5 0.5,-0.5c0.27614,0 0.5,0.2239 0.5,0.5zm0,6c0,0.2761 -0.22386,0.5 -0.5,0.5c-0.27614,0 -0.5,-0.2239 -0.5,-0.5c0,-0.2761 0.22386,-0.5 0.5,-0.5c0.27614,0 0.5,0.2239 0.5,0.5z"/>
 </g>
</svg>